<svg width="24" height="24" viewBox="0 0 24 24" fill="#000" xmlns="http://www.w3.org/2000/svg">
<path d="M7.91728 13C8.59542 13 9.0549 13.0888 9.53652 13.3463C10.0132 13.6013 10.398 13.9861 10.6529 14.4627C10.8819 14.8908 10.9774 15.3015 10.9958 15.8637L10.9992 16.082V18.7181C10.9992 19.3962 10.9105 19.8557 10.6529 20.3373C10.398 20.814 10.0132 21.1988 9.53652 21.4537C9.10841 21.6827 8.6978 21.7782 8.13556 21.7966L7.91728 21.8H5.28116C4.60302 21.8 4.14354 21.7113 3.66192 21.4537C3.18527 21.1988 2.80043 20.814 2.54552 20.3373C2.31657 19.9092 2.22102 19.4986 2.20261 18.9364L2.19922 18.7181V16.082C2.19922 15.4038 2.28795 14.9444 2.54552 14.4627C2.80043 13.9861 3.18527 13.6013 3.66192 13.3463C4.09002 13.1174 4.50064 13.0218 5.06288 13.0034L5.28116 13H7.91728ZM18.7173 13C19.3954 13 19.8549 13.0888 20.3365 13.3463C20.8132 13.6013 21.198 13.9861 21.4529 14.4627C21.6819 14.8908 21.7774 15.3015 21.7958 15.8637L21.7992 16.082V18.7181C21.7992 19.3962 21.7105 19.8557 21.4529 20.3373C21.198 20.814 20.8132 21.1988 20.3365 21.4537C19.9084 21.6827 19.4978 21.7782 18.9356 21.7966L18.7173 21.8H16.0812C15.403 21.8 14.9435 21.7113 14.4619 21.4537C13.9853 21.1988 13.6004 20.814 13.3455 20.3373C13.1166 19.9092 13.021 19.4986 13.0026 18.9364L12.9992 18.7181V16.082C12.9992 15.4038 13.0879 14.9444 13.3455 14.4627C13.6004 13.9861 13.9853 13.6013 14.4619 13.3463C14.89 13.1174 15.3006 13.0218 15.8629 13.0034L16.0812 13H18.7173ZM7.91728 14.8H5.28116C4.8354 14.8 4.67376 14.8464 4.5108 14.9336C4.34783 15.0208 4.21994 15.1487 4.13279 15.3116C4.05653 15.4542 4.01146 15.5958 4.00138 15.9276L3.99922 16.082V18.7181C3.99922 19.1639 4.04563 19.3255 4.13279 19.4885C4.21994 19.6514 4.34783 19.7793 4.5108 19.8665C4.65339 19.9427 4.79497 19.9878 5.12676 19.9979L5.28116 20H7.91728C8.36304 20 8.52468 19.9536 8.68764 19.8665C8.85061 19.7793 8.9785 19.6514 9.06565 19.4885C9.14191 19.3459 9.18698 19.2043 9.19705 18.8725L9.19922 18.7181V16.082C9.19922 15.6362 9.15281 15.4746 9.06565 15.3116C8.9785 15.1487 8.85061 15.0208 8.68764 14.9336C8.52468 14.8464 8.36304 14.8 7.91728 14.8ZM18.7173 14.8H16.0812C15.6354 14.8 15.4738 14.8464 15.3108 14.9336C15.1478 15.0208 15.0199 15.1487 14.9328 15.3116C14.8565 15.4542 14.8115 15.5958 14.8014 15.9276L14.7992 16.082V18.7181C14.7992 19.1639 14.8456 19.3255 14.9328 19.4885C15.0199 19.6514 15.1478 19.7793 15.3108 19.8665C15.4534 19.9427 15.595 19.9878 15.9268 19.9979L16.0812 20H18.7173C19.163 20 19.3247 19.9536 19.4876 19.8665C19.6506 19.7793 19.7785 19.6514 19.8657 19.4885C19.9419 19.3459 19.987 19.2043 19.9971 18.8725L19.9992 18.7181V16.082C19.9992 15.6362 19.9528 15.4746 19.8657 15.3116C19.7785 15.1487 19.6506 15.0208 19.4876 14.9336C19.3247 14.8464 19.163 14.8 18.7173 14.8ZM18.1886 1.65665C18.646 1.79528 18.9999 2.01332 19.4025 2.38691L19.5785 2.55676L21.4425 4.42077C21.922 4.90029 22.1842 5.28794 22.3426 5.81062C22.4994 6.32792 22.4994 6.87216 22.3426 7.38945C22.204 7.8468 21.9859 8.20076 21.6123 8.60334L21.4425 8.7793L19.5785 10.6433C19.099 11.1228 18.7113 11.385 18.1886 11.5434C17.6713 11.7002 17.1271 11.7002 16.6098 11.5434C16.1525 11.4048 15.7985 11.1868 15.3959 10.8132L15.22 10.6433L13.3559 8.7793C12.8764 8.29978 12.6143 7.91214 12.4558 7.38945C12.299 6.87216 12.299 6.32792 12.4558 5.81062C12.5945 5.35327 12.8125 4.99932 13.1861 4.59673L13.3559 4.42077L15.22 2.55676C15.6995 2.07724 16.0871 1.81508 16.6098 1.65665C17.1271 1.49987 17.6713 1.49987 18.1886 1.65665ZM7.91728 2.20004C8.59542 2.20004 9.0549 2.28877 9.53652 2.54634C10.0132 2.80125 10.398 3.18609 10.6529 3.66274C10.9105 4.14436 10.9992 4.60383 10.9992 5.28198V7.91809C10.9992 8.59624 10.9105 9.05572 10.6529 9.53734C10.398 10.014 10.0132 10.3988 9.53652 10.6537C9.0549 10.9113 8.59542 11 7.91728 11H5.28116C4.60302 11 4.14354 10.9113 3.66192 10.6537C3.18527 10.3988 2.80043 10.014 2.54552 9.53734C2.28795 9.05572 2.19922 8.59624 2.19922 7.91809V5.28198C2.19922 4.60383 2.28795 4.14436 2.54552 3.66274C2.80043 3.18609 3.18527 2.80125 3.66192 2.54634C4.14354 2.28877 4.60302 2.20004 5.28116 2.20004H7.91728ZM17.1319 3.37927C16.9772 3.42617 16.8452 3.49442 16.6035 3.72191L16.4927 3.82955L14.6287 5.69357C14.3135 6.00877 14.2321 6.15588 14.1784 6.33274C14.1248 6.5096 14.1248 6.69047 14.1784 6.86733C14.2254 7.02208 14.2936 7.15406 14.5211 7.3958L14.6287 7.50651L16.4927 9.37052C16.8079 9.68572 16.9551 9.7672 17.1319 9.82081C17.3088 9.87441 17.4897 9.87441 17.6665 9.82081C17.8213 9.7739 17.9532 9.70566 18.195 9.47817L18.3057 9.37052L20.1697 7.50651C20.4849 7.19131 20.5664 7.04419 20.62 6.86733C20.6736 6.69047 20.6736 6.5096 20.62 6.33274C20.5731 6.17799 20.5048 6.04601 20.2773 5.80427L20.1697 5.69357L18.3057 3.82955C17.9905 3.51435 17.8434 3.43287 17.6665 3.37927C17.4897 3.32566 17.3088 3.32566 17.1319 3.37927ZM7.91728 4.00004H5.28116C4.8354 4.00004 4.67376 4.04645 4.5108 4.1336C4.34783 4.22076 4.21994 4.34865 4.13279 4.51161C4.04563 4.67458 3.99922 4.83622 3.99922 5.28198V7.91809C3.99922 8.36385 4.04563 8.5255 4.13279 8.68846C4.21994 8.85142 4.34783 8.97932 4.5108 9.06647C4.67376 9.15362 4.8354 9.20004 5.28116 9.20004H7.91728C8.36304 9.20004 8.52468 9.15362 8.68764 9.06647C8.85061 8.97932 8.9785 8.85142 9.06565 8.68846C9.15281 8.5255 9.19922 8.36385 9.19922 7.91809V5.28198C9.19922 4.83622 9.15281 4.67458 9.06565 4.51161C8.9785 4.34865 8.85061 4.22076 8.68764 4.1336C8.52468 4.04645 8.36304 4.00004 7.91728 4.00004Z" fill="#C30E09"/>
</svg>
