<svg width="24" height="24" viewBox="0 0 24 24" fill="#000" xmlns="http://www.w3.org/2000/svg">
<path d="M3.9 6.9001L18.1 6.9001C18.5971 6.9001 19 6.49715 19 6.0001C19 5.50304 18.5971 5.1001 18.1 5.1001L3.9 5.1001C3.40294 5.1001 3 5.50305 3 6.0001C3 6.49716 3.40294 6.9001 3.9 6.9001Z" fill="#C30E09"/>
<path d="M3.9 10.1001C3.40294 10.1001 3 10.503 3 11.0001C3 11.4972 3.40294 11.9001 3.9 11.9001L18.1 11.9001C18.5971 11.9001 19 11.4972 19 11.0001C19 10.503 18.5971 10.1001 18.1 10.1001L3.9 10.1001Z" fill="#C30E09"/>
<path d="M3 16.0001C3 15.503 3.40294 15.1001 3.9 15.1001H9.1C9.59706 15.1001 10 15.503 10 16.0001C10 16.4972 9.59706 16.9001 9.1 16.9001H3.9C3.40294 16.9001 3 16.4972 3 16.0001Z" fill="#C30E09"/>
<path d="M22.7234 13.6906C23.1047 13.2911 23.09 12.6581 22.6905 12.2768C22.291 11.8954 21.658 11.9101 21.2766 12.3096L16.2727 17.5518L13.7234 14.8811C13.342 14.4816 12.709 14.4669 12.3095 14.8482C11.91 15.2295 11.8953 15.8625 12.2766 16.262L15.5494 19.6906C15.7381 19.8883 15.9994 20.0001 16.2727 20.0001C16.546 20.0001 16.8074 19.8883 16.9961 19.6906L22.7234 13.6906Z" fill="#C30E09"/>
</svg>
