<svg width="24" height="24" viewBox="0 0 24 24" fill="#000" xmlns="http://www.w3.org/2000/svg">
<path d="M16.9996 13.5002C20.6881 13.5002 23.8996 14.8094 23.8996 17.7573C23.8996 19.3114 23.2559 20.0002 21.9408 20.0002L16.3449 20.0002C15.8017 20.0002 15.418 19.4492 15.5252 18.9167C15.6005 18.5431 15.9141 18.2002 16.2952 18.2003C18.5545 18.2006 22.0776 18.2022 22.0776 18.2022C22.0776 18.2022 22.0996 17.9053 22.0996 17.7573C22.0996 16.2451 19.7817 15.3002 16.9996 15.3002C16.5275 15.3002 16.0688 15.3274 15.6326 15.3799C15.2973 15.4203 14.9728 15.261 14.7829 14.9818C14.4319 14.466 14.6168 13.6857 15.2358 13.6073C15.8027 13.5354 16.3947 13.5002 16.9996 13.5002ZM6.99961 13.5002C10.6881 13.5002 13.8996 14.8094 13.8996 17.7573C13.8996 19.3114 13.2559 20.0002 11.9408 20.0002H2.05843C0.743319 20.0002 0.0996094 19.3114 0.0996094 17.7573C0.0996094 14.8094 3.31116 13.5002 6.99961 13.5002ZM6.99961 15.3002C4.21747 15.3002 1.89961 16.2451 1.89961 17.7573C1.89961 17.9061 1.91961 18.2022 1.91961 18.2022H12.0776C12.0776 18.2022 12.0996 17.9053 12.0996 17.7573C12.0996 16.2451 9.78175 15.3002 6.99961 15.3002ZM16.9996 4.2002C19.2923 4.2002 21.1496 6.05751 21.1496 8.3502C21.1496 10.6429 19.2923 12.5002 16.9996 12.5002C14.7069 12.5002 12.8496 10.6429 12.8496 8.3502C12.8496 6.05751 14.7069 4.2002 16.9996 4.2002ZM6.99961 4.2002C9.29229 4.2002 11.1496 6.05751 11.1496 8.3502C11.1496 10.6429 9.29229 12.5002 6.99961 12.5002C4.70693 12.5002 2.84961 10.6429 2.84961 8.3502C2.84961 6.05751 4.70693 4.2002 6.99961 4.2002ZM16.9996 6.0002C15.701 6.0002 14.6496 7.05163 14.6496 8.3502C14.6496 9.64876 15.701 10.7002 16.9996 10.7002C18.2982 10.7002 19.3496 9.64876 19.3496 8.3502C19.3496 7.05163 18.2982 6.0002 16.9996 6.0002ZM6.99961 6.0002C5.70104 6.0002 4.64961 7.05163 4.64961 8.3502C4.64961 9.64876 5.70104 10.7002 6.99961 10.7002C8.29818 10.7002 9.34961 9.64876 9.34961 8.3502C9.34961 7.05163 8.29818 6.0002 6.99961 6.0002Z" fill="#C30E09"/>
</svg>
