<svg width="24" height="24" viewBox="0 0 24 24" fill="#000" xmlns="http://www.w3.org/2000/svg">
<path fill-rule="evenodd" clip-rule="evenodd" d="M12 5.55272C14.0281 4.34626 16.1725 3.92396 18.9593 4.00469C19.002 4.00593 19.0446 4.00707 19.0872 4.0082C19.6661 4.02359 20.2286 4.03855 20.7327 4.30828C21.1584 4.53609 21.5323 4.92086 21.7478 5.35282C21.8961 5.65026 21.9521 5.94928 21.977 6.24249C22 6.51253 22 6.83348 22 7.18913V15.2462C22 15.8163 22 16.2946 21.9705 16.6819C21.9401 17.0817 21.8736 17.4743 21.6883 17.8409C21.4005 18.4104 21.0033 18.8119 20.4369 19.106C20.0619 19.3008 19.6405 19.3685 19.2166 19.4024C18.7947 19.4361 18.2618 19.4421 17.6137 19.4494L17.5807 19.4498C15.566 19.4725 14.0636 19.8343 12.6275 20.7522C12.571 20.8051 12.5072 20.8511 12.437 20.8887C12.3002 20.9619 12.1497 20.9971 12 20.995C11.8503 20.9971 11.6998 20.9619 11.5629 20.8887C11.4928 20.8511 11.429 20.8051 11.3725 20.7522C9.93634 19.8343 8.43399 19.4725 6.41923 19.4498L6.38627 19.4494C5.73811 19.4421 5.2053 19.4361 4.78337 19.4024C4.3595 19.3685 3.93802 19.3008 3.56306 19.106C2.99662 18.8119 2.59951 18.4104 2.31164 17.8409C2.12636 17.4743 2.05991 17.0817 2.02946 16.6819C1.99998 16.2946 1.99999 15.8163 2 15.2462V7.22221C2 7.21116 2 7.20015 2 7.18918C1.99998 6.83351 1.99996 6.51255 2.02294 6.24249C2.0479 5.94928 2.10383 5.65026 2.2522 5.35282C2.46767 4.92085 2.84158 4.53609 3.26728 4.30828C3.77132 4.03855 4.3339 4.02359 4.9128 4.0082C4.95535 4.00707 4.99799 4.00593 5.04069 4.00469C7.82741 3.92396 9.97186 4.34626 12 5.55272ZM11.0876 18.5561C9.67438 17.9211 8.1762 17.6702 6.43954 17.6506C5.75029 17.6428 5.27976 17.637 4.92693 17.6088C4.5689 17.5801 4.44084 17.5342 4.39289 17.5093C4.1613 17.3891 4.0359 17.2623 3.91821 17.0294C3.88857 16.9708 3.84756 16.8512 3.82427 16.5453C3.80061 16.2346 3.8 15.8253 3.8 15.2119V7.22221C3.8 6.82309 3.80075 6.57961 3.81646 6.39503C3.83091 6.22526 3.85379 6.1743 3.86305 6.15574C3.91208 6.05745 4.01996 5.94644 4.11682 5.8946C4.19857 5.85086 4.29888 5.82628 5.09284 5.80327C7.63215 5.72971 9.42002 6.10947 11.0876 7.10379V18.5561ZM12.9123 18.5561C14.3256 17.9211 15.8238 17.6702 17.5604 17.6506C18.2497 17.6428 18.7202 17.637 19.073 17.6088C19.4311 17.5801 19.5591 17.5342 19.6071 17.5093C19.8387 17.3891 19.9641 17.2623 20.0817 17.0294C20.1114 16.9708 20.1524 16.8512 20.1757 16.5453C20.1993 16.2346 20.2 15.8253 20.2 15.2119V7.22221C20.2 6.82309 20.1992 6.57961 20.1835 6.39503C20.169 6.22526 20.1462 6.1743 20.1369 6.15574C20.0879 6.05745 19.98 5.94644 19.8831 5.8946C19.8014 5.85086 19.7011 5.82628 18.9071 5.80327C16.3678 5.72971 14.5799 6.10947 12.9123 7.10379V18.5561ZM5.35055 9.86551C5.3683 9.36896 5.78538 8.98081 6.28212 8.99855C7.26341 9.03361 7.95239 9.17084 8.78072 9.4427C9.25298 9.59769 9.51012 10.106 9.35507 10.5781C9.20002 11.0502 8.69149 11.3072 8.21923 11.1522C7.54232 10.9301 7.02052 10.8254 6.21783 10.7967C5.72109 10.779 5.3328 10.3621 5.35055 9.86551ZM18.6494 9.86554C18.6672 10.3621 18.2789 10.779 17.7821 10.7968C16.9794 10.8254 16.4576 10.9301 15.7807 11.1523C15.3085 11.3073 14.7999 11.0502 14.6449 10.5781C14.4898 10.1061 14.747 9.59771 15.2192 9.44272C16.0476 9.17086 16.7365 9.03363 17.7178 8.99858C18.2146 8.98083 18.6317 9.36898 18.6494 9.86554ZM5.35055 13.8641C5.3683 13.3675 5.78538 12.9794 6.28212 12.9971C7.26341 13.0322 7.95239 13.1694 8.78072 13.4412C9.25298 13.5962 9.51012 14.1046 9.35507 14.5767C9.20002 15.0487 8.69149 15.3058 8.21923 15.1508C7.54232 14.9286 7.02052 14.824 6.21783 14.7953C5.72109 14.7775 5.3328 14.3606 5.35055 13.8641ZM18.6494 13.8641C18.6672 14.3606 18.2789 14.7775 17.7821 14.7953C16.9794 14.824 16.4576 14.9286 15.7807 15.1508C15.3085 15.3058 14.7999 15.0487 14.6449 14.5767C14.4898 14.1046 14.747 13.5962 15.2192 13.4412C16.0476 13.1694 16.7365 13.0322 17.7178 12.9971C18.2146 12.9794 18.6317 13.3675 18.6494 13.8641Z" fill="#C30E09"/>
</svg>
