<svg width="24" height="24" viewBox="0 0 24 24" fill="#000" xmlns="http://www.w3.org/2000/svg">
<path d="M8.99998 10.5C9.8284 10.5 10.5 9.8284 10.5 8.99998C10.5 8.17155 9.8284 7.49998 8.99998 7.49998C8.17155 7.49998 7.49998 8.17155 7.49998 8.99998C7.49998 9.8284 8.17155 10.5 8.99998 10.5Z" fill="#C30E09"/>
<path fill-rule="evenodd" clip-rule="evenodd" d="M9.46159 3H14.5384C15.4859 2.99999 16.2517 2.99998 16.8721 3.05067C17.5114 3.10291 18.0752 3.21341 18.5976 3.47957C19.4255 3.90141 20.0986 4.57453 20.5204 5.40244C20.7866 5.92481 20.8971 6.48863 20.9493 7.12792C21 7.74834 21 8.51409 21 9.46159V14.5384C21 15.4859 21 16.2517 20.9493 16.8721C20.8971 17.5114 20.7866 18.0752 20.5204 18.5976C20.0986 19.4255 19.4255 20.0986 18.5976 20.5204C18.0752 20.7866 17.5114 20.8971 16.8721 20.9493C16.2517 21 15.4859 21 14.5384 21H9.46159C8.51409 21 7.74834 21 7.12792 20.9493C6.48863 20.8971 5.92481 20.7866 5.40244 20.5204C4.57453 20.0986 3.90142 19.4255 3.47957 18.5976C3.21341 18.0752 3.10291 17.5114 3.05067 16.8721C2.99998 16.2517 2.99999 15.4859 3 14.5384V9.46159C2.99999 8.51409 2.99998 7.74834 3.05067 7.12792C3.10291 6.48863 3.21341 5.92481 3.47957 5.40244C3.90142 4.57453 4.57453 3.90141 5.40244 3.47957C5.92481 3.21341 6.48863 3.10291 7.12792 3.05067C7.74834 2.99998 8.51409 2.99999 9.46159 3ZM7.2745 4.8447C6.74652 4.88783 6.44595 4.96807 6.21963 5.08338C5.7304 5.33265 5.33265 5.7304 5.08338 6.21963C4.96807 6.44595 4.88783 6.74652 4.8447 7.2745C4.8007 7.81298 4.8 8.50506 4.8 9.5V14.5C4.8 15.4949 4.8007 16.187 4.8447 16.7255C4.84825 16.7691 4.85207 16.8111 4.85613 16.8516L7.74902 13.9587C7.92949 13.7782 8.10117 13.6065 8.25766 13.4737C8.42824 13.3289 8.63927 13.1781 8.91232 13.0897C9.29503 12.9659 9.70717 12.9667 10.0894 13.092C10.3621 13.1814 10.5725 13.3331 10.7426 13.4785C10.8985 13.6119 11.0695 13.7843 11.2493 13.9655L12.0026 14.7247L14.7632 11.9641C14.943 11.7843 15.1141 11.6131 15.2701 11.4807C15.4402 11.3363 15.6506 11.1858 15.9227 11.0974C16.3043 10.9734 16.7154 10.9734 17.097 11.0974C17.3692 11.1858 17.5795 11.3363 17.7496 11.4807C17.9056 11.6131 18.0768 11.7843 18.2566 11.9641L19.2 12.9076V9.5C19.2 8.50506 19.1993 7.81298 19.1553 7.2745C19.1122 6.74652 19.0319 6.44595 18.9166 6.21963C18.6673 5.7304 18.2696 5.33265 17.7804 5.08338C17.5541 4.96807 17.2535 4.88783 16.7255 4.8447C16.187 4.8007 15.4949 4.8 14.5 4.8H9.5C8.50506 4.8 7.81298 4.8007 7.2745 4.8447ZM6.21963 18.9166C6.02891 18.8194 5.85209 18.6997 5.69256 18.5608L9.00071 15.2526C9.20994 15.0434 9.32902 14.9253 9.4224 14.8461C9.4519 14.821 9.47154 14.8064 9.4828 14.7985C9.49257 14.797 9.5025 14.7971 9.51227 14.7985C9.5235 14.8065 9.54309 14.8212 9.57248 14.8463C9.66556 14.926 9.78417 15.0445 9.99258 15.2546L11.3612 16.6339C11.5298 16.8038 11.759 16.8995 11.9983 16.9C12.2376 16.9004 12.4673 16.8056 12.6365 16.6364L16.0149 13.258C16.2234 13.0495 16.342 12.9319 16.435 12.8529C16.4644 12.828 16.4839 12.8134 16.4951 12.8055C16.5049 12.8041 16.5148 12.8041 16.5246 12.8055C16.5358 12.8134 16.5554 12.828 16.5847 12.8529C16.6777 12.9319 16.7963 13.0495 17.0048 13.258L19.1978 15.451C19.1941 15.9665 19.1837 16.378 19.1553 16.7255C19.1122 17.2535 19.0319 17.5541 18.9166 17.7804C18.6673 18.2696 18.2696 18.6673 17.7804 18.9166C17.5541 19.0319 17.2535 19.1122 16.7255 19.1553C16.187 19.1993 15.4949 19.2 14.5 19.2H9.5C8.50505 19.2 7.81298 19.1993 7.27449 19.1553C6.74652 19.1122 6.44595 19.0319 6.21963 18.9166Z" fill="#C30E09"/>
</svg>
