<svg width="24" height="24" viewBox="0 0 24 24" fill="#000" xmlns="http://www.w3.org/2000/svg">
<path fill-rule="evenodd" clip-rule="evenodd" d="M12.1851 4.85085C12.0646 4.8117 11.9348 4.8117 11.8143 4.85085C11.801 4.85516 11.7449 4.87486 11.5962 5.00114C11.4394 5.13424 11.2465 5.3261 10.939 5.63362L5.57334 10.9993C5.19715 11.3755 5.11687 11.464 5.06179 11.5539C5.00147 11.6523 4.95703 11.7596 4.93008 11.8718C4.90547 11.9743 4.89969 12.0936 4.89969 12.6257V17.6002C4.89969 18.0351 4.90039 18.3071 4.91714 18.5121C4.93303 18.7065 4.95876 18.7601 4.96509 18.7726C5.02261 18.8855 5.1144 18.9772 5.2273 19.0348C5.23971 19.0411 5.29331 19.0668 5.48778 19.0827C5.69276 19.0995 5.9648 19.1002 6.39969 19.1002H9.09969V15.9002C9.09969 14.2985 10.3981 13.0002 11.9997 13.0002C13.6013 13.0002 14.8997 14.2985 14.8997 15.9002V19.1002H17.5997C18.0346 19.1002 18.3066 19.0995 18.5116 19.0827C18.7061 19.0668 18.7597 19.0411 18.7721 19.0348C18.885 18.9772 18.9768 18.8855 19.0343 18.7726C19.0406 18.7601 19.0664 18.7065 19.0822 18.5121C19.099 18.3071 19.0997 18.0351 19.0997 17.6002V12.6257C19.0997 12.0936 19.0939 11.9743 19.0693 11.8718C19.0424 11.7596 18.9979 11.6523 18.9376 11.5539C18.8825 11.464 18.8022 11.3755 18.426 10.9993L13.0604 5.63362C12.7528 5.3261 12.56 5.13424 12.4032 5.00114C12.2545 4.87486 12.1983 4.85516 12.1851 4.85085ZM11.258 3.13895C11.7401 2.98233 12.2593 2.98233 12.7413 3.13895C13.0706 3.24593 13.3342 3.43037 13.5681 3.62893C13.7878 3.81539 14.0328 4.06041 14.3096 4.33727L19.6988 9.72652C19.7177 9.74543 19.7365 9.76413 19.755 9.78265C20.046 10.0732 20.2916 10.3184 20.4723 10.6134C20.6314 10.8728 20.7485 11.1557 20.8196 11.4516C20.9003 11.788 20.9001 12.135 20.8997 12.5462C20.8997 12.5724 20.8997 12.5989 20.8997 12.6257V17.6335C20.8997 18.025 20.8997 18.3715 20.8763 18.6586C20.8513 18.9644 20.7953 19.2813 20.6381 19.5897C20.408 20.0413 20.0409 20.4085 19.5893 20.6386C19.2808 20.7957 18.964 20.8518 18.6582 20.8767C18.371 20.9002 18.0245 20.9002 17.633 20.9002H14.1884C13.5871 20.9002 13.0997 20.4128 13.0997 19.8115V15.9002C13.0997 15.2926 12.6072 14.8002 11.9997 14.8002C11.3922 14.8002 10.8997 15.2926 10.8997 15.9002V19.8115C10.8997 20.4128 10.4123 20.9002 9.81103 20.9002H6.36635C5.97485 20.9002 5.62836 20.9002 5.34121 20.8767C5.03542 20.8518 4.71857 20.7957 4.41011 20.6386C3.95852 20.4085 3.59137 20.0413 3.36128 19.5897C3.20411 19.2813 3.1481 18.9644 3.12312 18.6586C3.09965 18.3715 3.09967 18.025 3.09969 17.6335L3.09969 12.6257C3.09969 12.5989 3.09967 12.5724 3.09965 12.5462C3.09933 12.135 3.09905 11.788 3.17982 11.4516C3.25086 11.1557 3.36803 10.8728 3.52703 10.6134C3.7078 10.3184 3.95337 10.0732 4.24436 9.78265C4.26291 9.76413 4.28164 9.74543 4.30055 9.72652L9.68981 4.33725C9.96663 4.0604 10.2116 3.81539 10.4313 3.62893C10.6652 3.43037 10.9288 3.24593 11.258 3.13895Z" fill="#C30E09"/>
</svg>
